<svg xmlns="http://www.w3.org/2000/svg" width="478" height="452" fill="none"><path fill="#DEDBC0" d="M241.497 238.973c102.523-49.418-141.424 8.013 21.366-226.56 122.623-8.245 191.142 78.713 199.652 197.524 8.51 118.81-63.285 223.089-166.258 223.09-47.296-79.764-120.885-147.084-54.76-194.054Z"/><path fill="#29180F" d="M330.353 222.847c-1.13 2.066-2.748 3.962-4.535 5.496-53.163 45.648-100.764 98.967-25.388 204.682-148.364 9.977-276.883-74.19-285.393-193C6.527 121.214 122.847 22.39 271.21 12.413c-106.551 75.71 110.765 116.024 59.142 210.434Z"/></svg>