<svg xmlns="http://www.w3.org/2000/svg" width="245" height="76" fill="none"><path fill="#000" d="M8.7 74V4h48.8v14.6H25.4v40.8h33.2V74H8.7Zm8.1-28.6v-14h36.3v14H16.8Zm70.153 13-5.7-12.2 24.7-25.3h21.1l-40.1 37.5ZM71.553 74V0h16.1v74h-16.1Zm35.9 0-18.5-24 11.4-8.8 26.2 32.8h-19.1Zm41.707-15.6-5.7-12.2 24.7-25.3h21.1l-40.1 37.5ZM133.76 74V0h16.1v74h-16.1Zm35.9 0-18.5-24 11.4-8.8 26.2 32.8h-19.1Z"/><path fill="#DEDBC0" d="M216.08 50.062c12.292-5.925-16.956.96 2.562-27.164 14.702-.988 22.917 9.438 23.937 23.682 1.02 14.245-7.587 26.748-19.933 26.748-5.671-9.564-14.494-17.635-6.566-23.266Z"/><path fill="#000" d="M227.677 45.175c-.203 2.35-2.116 4.074-3.809 5.71-5.245 5.064-8.634 11.346-.722 22.443-17.788 1.196-33.197-8.895-34.217-23.14-1.021-14.245 12.926-26.094 30.714-27.29-11.606 8.247 8.835 12.99 8.034 22.277Z"/></svg>